<mxfile host="app.diagrams.net" modified="2023-12-10T16:32:10.684Z" agent="Mozilla/5.0 (Windows NT 10.0; Win64; x64) AppleWebKit/537.36 (KHTML, like Gecko) Chrome/120.0.0.0 Safari/537.36" etag="ttd6Wp6_YRofMe6KNrmA" version="22.1.7" type="device">
  <diagram name="Pagina-1" id="ntX06gby8FH7XZ6cEisF">
    <mxGraphModel dx="6904" dy="3879" grid="1" gridSize="10" guides="1" tooltips="1" connect="1" arrows="1" fold="1" page="1" pageScale="1" pageWidth="827" pageHeight="1169" math="0" shadow="0">
      <root>
        <mxCell id="0" />
        <mxCell id="1" parent="0" />
        <mxCell id="1ZF52mfroUwK1f3blm6r-12" value="AWS" style="text;html=1;strokeColor=none;fillColor=none;align=center;verticalAlign=middle;whiteSpace=wrap;rounded=0;fontSize=25;" parent="1" vertex="1">
          <mxGeometry x="760" y="840" width="240" height="80" as="geometry" />
        </mxCell>
        <mxCell id="J2lgiJjnoTaXiFDJEql7-4" value="Users" style="shape=umlActor;verticalLabelPosition=top;verticalAlign=bottom;html=1;outlineConnect=0;labelPosition=center;align=center;" parent="1" vertex="1">
          <mxGeometry x="170" y="40" width="20" height="40" as="geometry" />
        </mxCell>
        <mxCell id="J2lgiJjnoTaXiFDJEql7-10" value="" style="endArrow=none;dashed=1;html=1;dashPattern=1 2;strokeWidth=1;rounded=0;" parent="1" edge="1">
          <mxGeometry width="50" height="50" relative="1" as="geometry">
            <mxPoint x="40" y="240" as="sourcePoint" />
            <mxPoint x="180" y="240" as="targetPoint" />
          </mxGeometry>
        </mxCell>
        <mxCell id="J2lgiJjnoTaXiFDJEql7-11" value="" style="endArrow=none;dashed=1;html=1;dashPattern=1 2;strokeWidth=1;rounded=0;" parent="1" source="J2lgiJjnoTaXiFDJEql7-4" edge="1">
          <mxGeometry width="50" height="50" relative="1" as="geometry">
            <mxPoint x="50" y="250" as="sourcePoint" />
            <mxPoint x="180" y="240" as="targetPoint" />
          </mxGeometry>
        </mxCell>
        <mxCell id="J2lgiJjnoTaXiFDJEql7-13" value="Kubernetes Cluster" style="rounded=1;whiteSpace=wrap;html=1;labelPosition=center;verticalLabelPosition=top;align=center;verticalAlign=bottom;fontSize=20;fontStyle=1;strokeWidth=0.5;perimeterSpacing=0;fillColor=#cce5ff;strokeColor=#36393d;" parent="1" vertex="1">
          <mxGeometry x="-780" width="760" height="670" as="geometry" />
        </mxCell>
        <mxCell id="1ZF52mfroUwK1f3blm6r-33" value="Worker&amp;nbsp;- Node 3" style="rounded=0;whiteSpace=wrap;html=1;fontSize=20;verticalAlign=bottom;align=center;fontStyle=0;horizontal=1;labelPosition=center;verticalLabelPosition=top;movable=1;resizable=1;rotatable=1;deletable=1;editable=1;locked=0;connectable=1;" parent="1" vertex="1">
          <mxGeometry x="-330" y="360" width="250" height="280" as="geometry" />
        </mxCell>
        <mxCell id="1ZF52mfroUwK1f3blm6r-39" value="Container runtime" style="rounded=1;whiteSpace=wrap;html=1;labelPosition=center;verticalLabelPosition=top;align=center;verticalAlign=bottom;movable=1;resizable=1;rotatable=1;deletable=1;editable=1;locked=0;connectable=1;" parent="1" vertex="1">
          <mxGeometry x="-310" y="470" width="210" height="150" as="geometry" />
        </mxCell>
        <mxCell id="1ZF52mfroUwK1f3blm6r-40" value="kubelet" style="rounded=1;whiteSpace=wrap;html=1;labelPosition=center;verticalLabelPosition=middle;align=center;verticalAlign=middle;movable=1;resizable=1;rotatable=1;deletable=1;editable=1;locked=0;connectable=1;" parent="1" vertex="1">
          <mxGeometry x="-300" y="380" width="90" height="60" as="geometry" />
        </mxCell>
        <mxCell id="1ZF52mfroUwK1f3blm6r-41" value="kube - proxy" style="rounded=1;whiteSpace=wrap;html=1;labelPosition=center;verticalLabelPosition=middle;align=center;verticalAlign=middle;movable=1;resizable=1;rotatable=1;deletable=1;editable=1;locked=0;connectable=1;" parent="1" vertex="1">
          <mxGeometry x="-200" y="380" width="90" height="60" as="geometry" />
        </mxCell>
        <mxCell id="1ZF52mfroUwK1f3blm6r-44" value="POD 1" style="rounded=1;whiteSpace=wrap;html=1;labelPosition=center;verticalLabelPosition=top;align=center;verticalAlign=bottom;fontSize=8;movable=1;resizable=1;rotatable=1;deletable=1;editable=1;locked=0;connectable=1;" parent="1" vertex="1">
          <mxGeometry x="-300" y="484" width="90" height="126" as="geometry" />
        </mxCell>
        <mxCell id="1ZF52mfroUwK1f3blm6r-45" value="Container 1" style="rounded=0;whiteSpace=wrap;html=1;fontSize=8;movable=1;resizable=1;rotatable=1;deletable=1;editable=1;locked=0;connectable=1;" parent="1" vertex="1">
          <mxGeometry x="-285" y="500" width="55" height="20" as="geometry" />
        </mxCell>
        <mxCell id="1ZF52mfroUwK1f3blm6r-52" style="edgeStyle=orthogonalEdgeStyle;rounded=0;orthogonalLoop=1;jettySize=auto;html=1;entryX=0.5;entryY=1;entryDx=0;entryDy=0;horizontal=1;startArrow=classic;startFill=1;endArrow=classic;endFill=1;startSize=3;endSize=3;movable=1;resizable=1;rotatable=1;deletable=1;editable=1;locked=0;connectable=1;" parent="1" source="1ZF52mfroUwK1f3blm6r-46" target="1ZF52mfroUwK1f3blm6r-45" edge="1">
          <mxGeometry relative="1" as="geometry" />
        </mxCell>
        <mxCell id="1ZF52mfroUwK1f3blm6r-93" value="localhost" style="edgeLabel;html=1;align=center;verticalAlign=middle;resizable=0;points=[];fontSize=9;" parent="1ZF52mfroUwK1f3blm6r-52" vertex="1" connectable="0">
          <mxGeometry x="0.0286" y="1" relative="1" as="geometry">
            <mxPoint as="offset" />
          </mxGeometry>
        </mxCell>
        <mxCell id="1ZF52mfroUwK1f3blm6r-46" value="Container 2" style="rounded=0;whiteSpace=wrap;html=1;fontSize=8;movable=1;resizable=1;rotatable=1;deletable=1;editable=1;locked=0;connectable=1;" parent="1" vertex="1">
          <mxGeometry x="-285" y="560" width="55" height="20" as="geometry" />
        </mxCell>
        <mxCell id="1ZF52mfroUwK1f3blm6r-50" value="ETH0" style="rounded=1;whiteSpace=wrap;html=1;dashed=1;dashPattern=1 1;rotation=0;fontSize=8;fillStyle=auto;shadow=0;glass=0;movable=1;resizable=1;rotatable=1;deletable=1;editable=1;locked=0;connectable=1;" parent="1" vertex="1">
          <mxGeometry x="-282.5" y="600" width="50" height="10" as="geometry" />
        </mxCell>
        <mxCell id="1ZF52mfroUwK1f3blm6r-55" value="POD 2" style="rounded=1;whiteSpace=wrap;html=1;labelPosition=center;verticalLabelPosition=top;align=center;verticalAlign=bottom;fontSize=8;movable=1;resizable=1;rotatable=1;deletable=1;editable=1;locked=0;connectable=1;" parent="1" vertex="1">
          <mxGeometry x="-200" y="484" width="90" height="126" as="geometry" />
        </mxCell>
        <mxCell id="1ZF52mfroUwK1f3blm6r-56" value="Container 1" style="rounded=0;whiteSpace=wrap;html=1;fontSize=8;movable=1;resizable=1;rotatable=1;deletable=1;editable=1;locked=0;connectable=1;" parent="1" vertex="1">
          <mxGeometry x="-185" y="500" width="55" height="20" as="geometry" />
        </mxCell>
        <mxCell id="1ZF52mfroUwK1f3blm6r-57" style="edgeStyle=orthogonalEdgeStyle;rounded=0;orthogonalLoop=1;jettySize=auto;html=1;entryX=0.5;entryY=1;entryDx=0;entryDy=0;horizontal=1;startArrow=classic;startFill=1;endArrow=classic;endFill=1;startSize=3;endSize=3;movable=1;resizable=1;rotatable=1;deletable=1;editable=1;locked=0;connectable=1;" parent="1" source="1ZF52mfroUwK1f3blm6r-58" target="1ZF52mfroUwK1f3blm6r-56" edge="1">
          <mxGeometry relative="1" as="geometry" />
        </mxCell>
        <mxCell id="1ZF52mfroUwK1f3blm6r-94" value="localhost" style="edgeLabel;html=1;align=center;verticalAlign=middle;resizable=0;points=[];fontSize=9;" parent="1ZF52mfroUwK1f3blm6r-57" vertex="1" connectable="0">
          <mxGeometry x="-0.0416" relative="1" as="geometry">
            <mxPoint as="offset" />
          </mxGeometry>
        </mxCell>
        <mxCell id="1ZF52mfroUwK1f3blm6r-58" value="Container 2" style="rounded=0;whiteSpace=wrap;html=1;fontSize=8;movable=1;resizable=1;rotatable=1;deletable=1;editable=1;locked=0;connectable=1;" parent="1" vertex="1">
          <mxGeometry x="-185" y="560" width="55" height="20" as="geometry" />
        </mxCell>
        <mxCell id="1ZF52mfroUwK1f3blm6r-59" value="ETH0" style="rounded=1;whiteSpace=wrap;html=1;dashed=1;dashPattern=1 1;rotation=0;fontSize=8;fillStyle=auto;shadow=0;glass=0;movable=1;resizable=1;rotatable=1;deletable=1;editable=1;locked=0;connectable=1;" parent="1" vertex="1">
          <mxGeometry x="-182.5" y="600" width="50" height="10" as="geometry" />
        </mxCell>
        <mxCell id="1ZF52mfroUwK1f3blm6r-95" value="Worker&amp;nbsp;- Node 2" style="rounded=0;whiteSpace=wrap;html=1;fontSize=20;verticalAlign=bottom;align=center;fontStyle=0;horizontal=1;labelPosition=center;verticalLabelPosition=top;movable=1;resizable=1;rotatable=1;deletable=1;editable=1;locked=0;connectable=1;" parent="1" vertex="1">
          <mxGeometry x="-330" y="40" width="250" height="280" as="geometry" />
        </mxCell>
        <mxCell id="1ZF52mfroUwK1f3blm6r-96" value="Container runtime" style="rounded=1;whiteSpace=wrap;html=1;labelPosition=center;verticalLabelPosition=top;align=center;verticalAlign=bottom;movable=1;resizable=1;rotatable=1;deletable=1;editable=1;locked=0;connectable=1;" parent="1" vertex="1">
          <mxGeometry x="-310" y="150" width="210" height="150" as="geometry" />
        </mxCell>
        <mxCell id="1ZF52mfroUwK1f3blm6r-97" value="kubelet" style="rounded=1;whiteSpace=wrap;html=1;labelPosition=center;verticalLabelPosition=middle;align=center;verticalAlign=middle;movable=1;resizable=1;rotatable=1;deletable=1;editable=1;locked=0;connectable=1;" parent="1" vertex="1">
          <mxGeometry x="-300" y="60" width="90" height="60" as="geometry" />
        </mxCell>
        <mxCell id="1ZF52mfroUwK1f3blm6r-98" value="kube - proxy" style="rounded=1;whiteSpace=wrap;html=1;labelPosition=center;verticalLabelPosition=middle;align=center;verticalAlign=middle;movable=1;resizable=1;rotatable=1;deletable=1;editable=1;locked=0;connectable=1;" parent="1" vertex="1">
          <mxGeometry x="-200" y="60" width="90" height="60" as="geometry" />
        </mxCell>
        <mxCell id="1ZF52mfroUwK1f3blm6r-99" value="POD 1" style="rounded=1;whiteSpace=wrap;html=1;labelPosition=center;verticalLabelPosition=top;align=center;verticalAlign=bottom;fontSize=8;movable=1;resizable=1;rotatable=1;deletable=1;editable=1;locked=0;connectable=1;" parent="1" vertex="1">
          <mxGeometry x="-300" y="164" width="90" height="126" as="geometry" />
        </mxCell>
        <mxCell id="1ZF52mfroUwK1f3blm6r-100" value="Container 1" style="rounded=0;whiteSpace=wrap;html=1;fontSize=8;movable=1;resizable=1;rotatable=1;deletable=1;editable=1;locked=0;connectable=1;" parent="1" vertex="1">
          <mxGeometry x="-285" y="180" width="55" height="20" as="geometry" />
        </mxCell>
        <mxCell id="1ZF52mfroUwK1f3blm6r-101" style="edgeStyle=orthogonalEdgeStyle;rounded=0;orthogonalLoop=1;jettySize=auto;html=1;entryX=0.5;entryY=1;entryDx=0;entryDy=0;horizontal=1;startArrow=classic;startFill=1;endArrow=classic;endFill=1;startSize=3;endSize=3;movable=1;resizable=1;rotatable=1;deletable=1;editable=1;locked=0;connectable=1;" parent="1" source="1ZF52mfroUwK1f3blm6r-103" target="1ZF52mfroUwK1f3blm6r-100" edge="1">
          <mxGeometry relative="1" as="geometry" />
        </mxCell>
        <mxCell id="1ZF52mfroUwK1f3blm6r-102" value="localhost" style="edgeLabel;html=1;align=center;verticalAlign=middle;resizable=0;points=[];fontSize=9;" parent="1ZF52mfroUwK1f3blm6r-101" vertex="1" connectable="0">
          <mxGeometry x="0.0286" y="1" relative="1" as="geometry">
            <mxPoint as="offset" />
          </mxGeometry>
        </mxCell>
        <mxCell id="1ZF52mfroUwK1f3blm6r-103" value="Container 2" style="rounded=0;whiteSpace=wrap;html=1;fontSize=8;movable=1;resizable=1;rotatable=1;deletable=1;editable=1;locked=0;connectable=1;" parent="1" vertex="1">
          <mxGeometry x="-285" y="240" width="55" height="20" as="geometry" />
        </mxCell>
        <mxCell id="1ZF52mfroUwK1f3blm6r-104" value="ETH0" style="rounded=1;whiteSpace=wrap;html=1;dashed=1;dashPattern=1 1;rotation=0;fontSize=8;fillStyle=auto;shadow=0;glass=0;movable=1;resizable=1;rotatable=1;deletable=1;editable=1;locked=0;connectable=1;" parent="1" vertex="1">
          <mxGeometry x="-282.5" y="280" width="50" height="10" as="geometry" />
        </mxCell>
        <mxCell id="1ZF52mfroUwK1f3blm6r-105" value="POD 2" style="rounded=1;whiteSpace=wrap;html=1;labelPosition=center;verticalLabelPosition=top;align=center;verticalAlign=bottom;fontSize=8;movable=1;resizable=1;rotatable=1;deletable=1;editable=1;locked=0;connectable=1;" parent="1" vertex="1">
          <mxGeometry x="-200" y="164" width="90" height="126" as="geometry" />
        </mxCell>
        <mxCell id="1ZF52mfroUwK1f3blm6r-106" value="Container 1" style="rounded=0;whiteSpace=wrap;html=1;fontSize=8;movable=1;resizable=1;rotatable=1;deletable=1;editable=1;locked=0;connectable=1;" parent="1" vertex="1">
          <mxGeometry x="-185" y="180" width="55" height="20" as="geometry" />
        </mxCell>
        <mxCell id="1ZF52mfroUwK1f3blm6r-107" style="edgeStyle=orthogonalEdgeStyle;rounded=0;orthogonalLoop=1;jettySize=auto;html=1;entryX=0.5;entryY=1;entryDx=0;entryDy=0;horizontal=1;startArrow=classic;startFill=1;endArrow=classic;endFill=1;startSize=3;endSize=3;movable=1;resizable=1;rotatable=1;deletable=1;editable=1;locked=0;connectable=1;" parent="1" source="1ZF52mfroUwK1f3blm6r-109" target="1ZF52mfroUwK1f3blm6r-106" edge="1">
          <mxGeometry relative="1" as="geometry" />
        </mxCell>
        <mxCell id="1ZF52mfroUwK1f3blm6r-108" value="localhost" style="edgeLabel;html=1;align=center;verticalAlign=middle;resizable=0;points=[];fontSize=9;" parent="1ZF52mfroUwK1f3blm6r-107" vertex="1" connectable="0">
          <mxGeometry x="-0.0416" relative="1" as="geometry">
            <mxPoint as="offset" />
          </mxGeometry>
        </mxCell>
        <mxCell id="1ZF52mfroUwK1f3blm6r-109" value="Container 2" style="rounded=0;whiteSpace=wrap;html=1;fontSize=8;movable=1;resizable=1;rotatable=1;deletable=1;editable=1;locked=0;connectable=1;" parent="1" vertex="1">
          <mxGeometry x="-185" y="240" width="55" height="20" as="geometry" />
        </mxCell>
        <mxCell id="1ZF52mfroUwK1f3blm6r-110" value="ETH0" style="rounded=1;whiteSpace=wrap;html=1;dashed=1;dashPattern=1 1;rotation=0;fontSize=8;fillStyle=auto;shadow=0;glass=0;movable=1;resizable=1;rotatable=1;deletable=1;editable=1;locked=0;connectable=1;" parent="1" vertex="1">
          <mxGeometry x="-182.5" y="280" width="50" height="10" as="geometry" />
        </mxCell>
        <mxCell id="1ZF52mfroUwK1f3blm6r-112" value="Control Plane (Master) Node 1" style="rounded=0;whiteSpace=wrap;html=1;fontSize=20;verticalAlign=bottom;align=center;fontStyle=0;horizontal=1;labelPosition=center;verticalLabelPosition=top;movable=1;resizable=1;rotatable=1;deletable=1;editable=1;locked=0;connectable=1;" parent="1" vertex="1">
          <mxGeometry x="-720" y="80" width="280" height="520" as="geometry" />
        </mxCell>
        <mxCell id="1ZF52mfroUwK1f3blm6r-113" value="API Server" style="rounded=1;whiteSpace=wrap;html=1;" parent="1" vertex="1">
          <mxGeometry x="-700" y="310" width="240" height="60" as="geometry" />
        </mxCell>
        <mxCell id="1ZF52mfroUwK1f3blm6r-127" style="edgeStyle=orthogonalEdgeStyle;rounded=0;orthogonalLoop=1;jettySize=auto;html=1;entryX=0.5;entryY=0;entryDx=0;entryDy=0;startArrow=classic;startFill=1;endArrow=none;endFill=0;" parent="1" source="1ZF52mfroUwK1f3blm6r-117" target="1ZF52mfroUwK1f3blm6r-113" edge="1">
          <mxGeometry relative="1" as="geometry" />
        </mxCell>
        <mxCell id="1ZF52mfroUwK1f3blm6r-117" value="etcd&lt;br&gt;(keyà-value store)" style="rounded=1;whiteSpace=wrap;html=1;" parent="1" vertex="1">
          <mxGeometry x="-635" y="110" width="110" height="150" as="geometry" />
        </mxCell>
        <mxCell id="1ZF52mfroUwK1f3blm6r-119" value="Scheduler" style="rounded=1;whiteSpace=wrap;html=1;" parent="1" vertex="1">
          <mxGeometry x="-700" y="414" width="110" height="150" as="geometry" />
        </mxCell>
        <mxCell id="1ZF52mfroUwK1f3blm6r-121" value="Controller Manager" style="rounded=1;whiteSpace=wrap;html=1;" parent="1" vertex="1">
          <mxGeometry x="-570" y="414" width="110" height="150" as="geometry" />
        </mxCell>
        <mxCell id="1ZF52mfroUwK1f3blm6r-123" style="edgeStyle=orthogonalEdgeStyle;rounded=0;orthogonalLoop=1;jettySize=auto;html=1;entryX=0.772;entryY=1.032;entryDx=0;entryDy=0;entryPerimeter=0;startArrow=classic;startFill=1;" parent="1" source="1ZF52mfroUwK1f3blm6r-121" target="1ZF52mfroUwK1f3blm6r-113" edge="1">
          <mxGeometry relative="1" as="geometry" />
        </mxCell>
        <mxCell id="1ZF52mfroUwK1f3blm6r-125" style="edgeStyle=orthogonalEdgeStyle;rounded=0;orthogonalLoop=1;jettySize=auto;html=1;entryX=0.23;entryY=1.038;entryDx=0;entryDy=0;entryPerimeter=0;startArrow=classic;startFill=1;" parent="1" source="1ZF52mfroUwK1f3blm6r-119" target="1ZF52mfroUwK1f3blm6r-113" edge="1">
          <mxGeometry relative="1" as="geometry" />
        </mxCell>
        <mxCell id="J2lgiJjnoTaXiFDJEql7-7" style="edgeStyle=orthogonalEdgeStyle;orthogonalLoop=1;jettySize=auto;html=1;startArrow=classic;startFill=1;dashed=1;dashPattern=1 2;" parent="1" source="1ZF52mfroUwK1f3blm6r-41" target="1ZF52mfroUwK1f3blm6r-98" edge="1">
          <mxGeometry relative="1" as="geometry">
            <Array as="points">
              <mxPoint x="40" y="410" />
              <mxPoint x="40" y="90" />
            </Array>
          </mxGeometry>
        </mxCell>
        <mxCell id="J2lgiJjnoTaXiFDJEql7-15" style="edgeStyle=orthogonalEdgeStyle;rounded=0;orthogonalLoop=1;jettySize=auto;html=1;dashed=1;dashPattern=1 2;" parent="1" source="J2lgiJjnoTaXiFDJEql7-14" target="1ZF52mfroUwK1f3blm6r-113" edge="1">
          <mxGeometry relative="1" as="geometry" />
        </mxCell>
        <mxCell id="J2lgiJjnoTaXiFDJEql7-16" value="kubectl" style="edgeLabel;html=1;align=center;verticalAlign=middle;resizable=0;points=[];" parent="J2lgiJjnoTaXiFDJEql7-15" vertex="1" connectable="0">
          <mxGeometry x="0.0015" y="-1" relative="1" as="geometry">
            <mxPoint as="offset" />
          </mxGeometry>
        </mxCell>
        <mxCell id="J2lgiJjnoTaXiFDJEql7-14" value="Developer" style="shape=umlActor;verticalLabelPosition=top;verticalAlign=bottom;html=1;outlineConnect=0;labelPosition=center;align=center;" parent="1" vertex="1">
          <mxGeometry x="-990" y="320" width="20" height="40" as="geometry" />
        </mxCell>
        <mxCell id="G333paSs6uaZIUQpYv4E-21" value="&lt;b&gt;&lt;font style=&quot;font-size: 24px;&quot;&gt;SG&lt;/font&gt;&lt;/b&gt;" style="rounded=1;whiteSpace=wrap;html=1;direction=south;strokeColor=#CC0000;labelPosition=center;verticalLabelPosition=bottom;align=center;verticalAlign=top;" vertex="1" parent="1">
          <mxGeometry x="-29" y="1580" width="510" height="660" as="geometry" />
        </mxCell>
        <mxCell id="W5_uPafkYvN7qBATFCOH-2" value="&lt;h1 style=&quot;line-height: 150%;&quot;&gt;Availability Zone&lt;/h1&gt;" style="rounded=1;whiteSpace=wrap;html=1;rotation=90;labelPosition=center;verticalLabelPosition=top;align=center;verticalAlign=bottom;strokeColor=#FFB570;direction=west;" parent="1" vertex="1">
          <mxGeometry x="-40" y="1702.5" width="525" height="390" as="geometry" />
        </mxCell>
        <mxCell id="W5_uPafkYvN7qBATFCOH-6" value="&lt;b&gt;&lt;font style=&quot;font-size: 24px;&quot;&gt;PUBLIC&lt;/font&gt;&lt;/b&gt;" style="rounded=1;whiteSpace=wrap;html=1;labelPosition=center;verticalLabelPosition=bottom;align=center;verticalAlign=top;" parent="1" vertex="1">
          <mxGeometry x="67.5" y="1700" width="310" height="370" as="geometry" />
        </mxCell>
        <mxCell id="W5_uPafkYvN7qBATFCOH-21" value="&lt;font style=&quot;font-size: 18px;&quot;&gt;10.2.0.0/24&lt;/font&gt;" style="text;html=1;strokeColor=none;fillColor=none;align=center;verticalAlign=middle;whiteSpace=wrap;rounded=0;" parent="1" vertex="1">
          <mxGeometry x="180" y="2010" width="85" height="30" as="geometry" />
        </mxCell>
        <mxCell id="G333paSs6uaZIUQpYv4E-22" value="&lt;font style=&quot;font-size: 25px;&quot;&gt;Region&lt;/font&gt;" style="text;html=1;strokeColor=none;fillColor=none;align=center;verticalAlign=middle;whiteSpace=wrap;rounded=0;" vertex="1" parent="1">
          <mxGeometry x="820" y="1040" width="110" height="30" as="geometry" />
        </mxCell>
        <mxCell id="G333paSs6uaZIUQpYv4E-23" value="&lt;font style=&quot;font-size: 25px;&quot;&gt;VPC&lt;br&gt;&lt;br&gt;&lt;/font&gt;" style="text;html=1;strokeColor=none;fillColor=none;align=center;verticalAlign=middle;whiteSpace=wrap;rounded=0;" vertex="1" parent="1">
          <mxGeometry x="850" y="1230" width="60" height="30" as="geometry" />
        </mxCell>
        <mxCell id="G333paSs6uaZIUQpYv4E-25" value="&lt;font style=&quot;font-size: 24px;&quot;&gt;&lt;b&gt;SG&lt;/b&gt;&lt;/font&gt;" style="rounded=1;whiteSpace=wrap;html=1;direction=south;labelPosition=center;verticalLabelPosition=bottom;align=center;verticalAlign=top;strokeColor=#CC0000;" vertex="1" parent="1">
          <mxGeometry x="600" y="1380" width="570" height="1300" as="geometry" />
        </mxCell>
        <mxCell id="W5_uPafkYvN7qBATFCOH-4" value="&lt;h1 style=&quot;line-height: 150%;&quot;&gt;Availability Zone&lt;/h1&gt;" style="rounded=1;whiteSpace=wrap;html=1;rotation=90;labelPosition=center;verticalLabelPosition=top;align=center;verticalAlign=bottom;strokeColor=#FFB570;" parent="1" vertex="1">
          <mxGeometry x="605" y="1525" width="540" height="390" as="geometry" />
        </mxCell>
        <mxCell id="W5_uPafkYvN7qBATFCOH-23" value="&lt;font style=&quot;font-size: 18px;&quot;&gt;10.2.1.0/24&lt;/font&gt;" style="text;html=1;strokeColor=none;fillColor=none;align=center;verticalAlign=middle;whiteSpace=wrap;rounded=0;" parent="1" vertex="1">
          <mxGeometry x="842.5" y="1940" width="85" height="30" as="geometry" />
        </mxCell>
        <mxCell id="G333paSs6uaZIUQpYv4E-43" value="&lt;b&gt;&lt;font style=&quot;font-size: 16px;&quot;&gt;ELB&lt;br&gt;&lt;/font&gt;&lt;/b&gt;" style="html=1;whiteSpace=wrap;shape=isoCube2;backgroundOutline=1;isoAngle=15;labelPosition=center;verticalLabelPosition=bottom;align=center;verticalAlign=top;" vertex="1" parent="1">
          <mxGeometry x="188.5" y="1820" width="75" height="80" as="geometry" />
        </mxCell>
        <mxCell id="G333paSs6uaZIUQpYv4E-48" value="&lt;b&gt;&lt;font style=&quot;font-size: 24px;&quot;&gt;SG&lt;/font&gt;&lt;/b&gt;" style="rounded=1;whiteSpace=wrap;html=1;direction=south;strokeColor=#CC0000;labelPosition=center;verticalLabelPosition=bottom;align=center;verticalAlign=top;" vertex="1" parent="1">
          <mxGeometry x="1290" y="1580" width="510" height="660" as="geometry" />
        </mxCell>
        <mxCell id="1ZF52mfroUwK1f3blm6r-26" value="&lt;h1 style=&quot;line-height: 150%;&quot;&gt;Availability Zone&lt;/h1&gt;" style="rounded=1;whiteSpace=wrap;html=1;rotation=90;labelPosition=center;verticalLabelPosition=top;align=center;verticalAlign=bottom;strokeColor=#FFB570;" parent="1" vertex="1">
          <mxGeometry x="1280" y="1715" width="530" height="390" as="geometry" />
        </mxCell>
        <mxCell id="1ZF52mfroUwK1f3blm6r-61" value="&lt;b&gt;&lt;font style=&quot;font-size: 24px;&quot;&gt;PRIVATE&lt;/font&gt;&lt;/b&gt;" style="rounded=1;whiteSpace=wrap;html=1;labelPosition=center;verticalLabelPosition=bottom;align=center;verticalAlign=top;" parent="1" vertex="1">
          <mxGeometry x="1390" y="1705" width="310" height="370" as="geometry" />
        </mxCell>
        <mxCell id="W5_uPafkYvN7qBATFCOH-24" value="&lt;font style=&quot;font-size: 18px;&quot;&gt;10.2.2.0/28&lt;/font&gt;" style="text;html=1;strokeColor=none;fillColor=none;align=center;verticalAlign=middle;whiteSpace=wrap;rounded=0;" parent="1" vertex="1">
          <mxGeometry x="1502.5" y="2015" width="85" height="30" as="geometry" />
        </mxCell>
        <mxCell id="G333paSs6uaZIUQpYv4E-34" value="&lt;span style=&quot;font-size: 16px;&quot;&gt;&lt;b&gt;DB&lt;br&gt;&lt;/b&gt;&lt;/span&gt;" style="html=1;whiteSpace=wrap;shape=isoCube2;backgroundOutline=1;isoAngle=15;labelPosition=center;verticalLabelPosition=bottom;align=center;verticalAlign=top;" vertex="1" parent="1">
          <mxGeometry x="1507.5" y="1820" width="75" height="80" as="geometry" />
        </mxCell>
        <mxCell id="W5_uPafkYvN7qBATFCOH-7" value="&lt;font style=&quot;font-size: 24px;&quot;&gt;&lt;b&gt;HYBRID&lt;/b&gt;&lt;/font&gt;" style="rounded=1;whiteSpace=wrap;html=1;labelPosition=center;verticalLabelPosition=bottom;align=center;verticalAlign=top;" parent="1" vertex="1">
          <mxGeometry x="720" y="1520" width="310" height="340" as="geometry" />
        </mxCell>
        <mxCell id="G333paSs6uaZIUQpYv4E-51" value="&lt;b&gt;&lt;font style=&quot;font-size: 24px;&quot;&gt;EC2&lt;/font&gt;&lt;/b&gt;" style="rounded=1;whiteSpace=wrap;html=1;labelPosition=center;verticalLabelPosition=bottom;align=center;verticalAlign=top;" vertex="1" parent="1">
          <mxGeometry x="740" y="1580" width="270" height="140" as="geometry" />
        </mxCell>
        <mxCell id="W5_uPafkYvN7qBATFCOH-9" value="&lt;b&gt;&lt;font style=&quot;font-size: 16px;&quot;&gt;WEBSERVER&lt;br&gt;FE&lt;br&gt;&lt;/font&gt;&lt;/b&gt;" style="html=1;whiteSpace=wrap;shape=isoCube2;backgroundOutline=1;isoAngle=15;labelPosition=center;verticalLabelPosition=bottom;align=center;verticalAlign=top;" parent="1" vertex="1">
          <mxGeometry x="775" y="1590" width="75" height="80" as="geometry" />
        </mxCell>
        <mxCell id="G333paSs6uaZIUQpYv4E-32" value="&lt;span style=&quot;font-size: 16px;&quot;&gt;&lt;b&gt;WEBSERVER&lt;br&gt;BE&lt;br&gt;&lt;/b&gt;&lt;/span&gt;" style="html=1;whiteSpace=wrap;shape=isoCube2;backgroundOutline=1;isoAngle=15;labelPosition=center;verticalLabelPosition=bottom;align=center;verticalAlign=top;" vertex="1" parent="1">
          <mxGeometry x="910" y="1590" width="75" height="80" as="geometry" />
        </mxCell>
        <mxCell id="G333paSs6uaZIUQpYv4E-56" value="&lt;h1 style=&quot;line-height: 150%;&quot;&gt;Availability Zone&lt;/h1&gt;" style="rounded=1;whiteSpace=wrap;html=1;rotation=90;labelPosition=center;verticalLabelPosition=top;align=center;verticalAlign=bottom;strokeColor=#FFB570;" vertex="1" parent="1">
          <mxGeometry x="615" y="2145" width="540" height="390" as="geometry" />
        </mxCell>
        <mxCell id="G333paSs6uaZIUQpYv4E-57" value="&lt;font style=&quot;font-size: 18px;&quot;&gt;10.2.1.0/24&lt;/font&gt;" style="text;html=1;strokeColor=none;fillColor=none;align=center;verticalAlign=middle;whiteSpace=wrap;rounded=0;" vertex="1" parent="1">
          <mxGeometry x="835" y="2560" width="85" height="30" as="geometry" />
        </mxCell>
        <mxCell id="G333paSs6uaZIUQpYv4E-58" value="&lt;font style=&quot;font-size: 24px;&quot;&gt;&lt;b&gt;HYBRID&lt;/b&gt;&lt;/font&gt;" style="rounded=1;whiteSpace=wrap;html=1;labelPosition=center;verticalLabelPosition=bottom;align=center;verticalAlign=top;" vertex="1" parent="1">
          <mxGeometry x="730" y="2140" width="310" height="340" as="geometry" />
        </mxCell>
        <mxCell id="G333paSs6uaZIUQpYv4E-59" value="&lt;b&gt;&lt;font style=&quot;font-size: 24px;&quot;&gt;EC2&lt;/font&gt;&lt;/b&gt;" style="rounded=1;whiteSpace=wrap;html=1;labelPosition=center;verticalLabelPosition=bottom;align=center;verticalAlign=top;" vertex="1" parent="1">
          <mxGeometry x="750" y="2200" width="270" height="140" as="geometry" />
        </mxCell>
        <mxCell id="G333paSs6uaZIUQpYv4E-61" value="&lt;b&gt;&lt;font style=&quot;font-size: 16px;&quot;&gt;WEBSERVER&lt;br&gt;FE&lt;br&gt;&lt;/font&gt;&lt;/b&gt;" style="html=1;whiteSpace=wrap;shape=isoCube2;backgroundOutline=1;isoAngle=15;labelPosition=center;verticalLabelPosition=bottom;align=center;verticalAlign=top;" vertex="1" parent="1">
          <mxGeometry x="785" y="2210" width="75" height="80" as="geometry" />
        </mxCell>
        <mxCell id="G333paSs6uaZIUQpYv4E-62" value="&lt;span style=&quot;font-size: 16px;&quot;&gt;&lt;b&gt;WEBSERVER&lt;br&gt;BE&lt;br&gt;&lt;/b&gt;&lt;/span&gt;" style="html=1;whiteSpace=wrap;shape=isoCube2;backgroundOutline=1;isoAngle=15;labelPosition=center;verticalLabelPosition=bottom;align=center;verticalAlign=top;" vertex="1" parent="1">
          <mxGeometry x="920" y="2210" width="75" height="80" as="geometry" />
        </mxCell>
        <mxCell id="G333paSs6uaZIUQpYv4E-63" style="edgeStyle=orthogonalEdgeStyle;rounded=0;orthogonalLoop=1;jettySize=auto;html=1;entryX=0;entryY=0.5;entryDx=0;entryDy=0;entryPerimeter=0;" edge="1" parent="1" source="G333paSs6uaZIUQpYv4E-43" target="G333paSs6uaZIUQpYv4E-61">
          <mxGeometry relative="1" as="geometry" />
        </mxCell>
        <mxCell id="G333paSs6uaZIUQpYv4E-64" style="edgeStyle=orthogonalEdgeStyle;rounded=0;orthogonalLoop=1;jettySize=auto;html=1;entryX=0;entryY=0.5;entryDx=0;entryDy=0;entryPerimeter=0;" edge="1" parent="1" source="G333paSs6uaZIUQpYv4E-43" target="W5_uPafkYvN7qBATFCOH-9">
          <mxGeometry relative="1" as="geometry" />
        </mxCell>
        <mxCell id="G333paSs6uaZIUQpYv4E-65" style="edgeStyle=orthogonalEdgeStyle;rounded=0;orthogonalLoop=1;jettySize=auto;html=1;entryX=0;entryY=0.5;entryDx=0;entryDy=0;entryPerimeter=0;dashed=1;startArrow=classic;startFill=1;" edge="1" parent="1" source="G333paSs6uaZIUQpYv4E-62" target="G333paSs6uaZIUQpYv4E-34">
          <mxGeometry relative="1" as="geometry" />
        </mxCell>
        <mxCell id="G333paSs6uaZIUQpYv4E-66" style="edgeStyle=orthogonalEdgeStyle;rounded=0;orthogonalLoop=1;jettySize=auto;html=1;entryX=0;entryY=0.5;entryDx=0;entryDy=0;entryPerimeter=0;dashed=1;startArrow=classic;startFill=1;" edge="1" parent="1" source="G333paSs6uaZIUQpYv4E-32" target="G333paSs6uaZIUQpYv4E-34">
          <mxGeometry relative="1" as="geometry" />
        </mxCell>
        <mxCell id="G333paSs6uaZIUQpYv4E-69" style="edgeStyle=orthogonalEdgeStyle;rounded=0;orthogonalLoop=1;jettySize=auto;html=1;entryX=0;entryY=0.5;entryDx=0;entryDy=0;entryPerimeter=0;startArrow=classic;startFill=1;" edge="1" parent="1" source="W5_uPafkYvN7qBATFCOH-9" target="G333paSs6uaZIUQpYv4E-32">
          <mxGeometry relative="1" as="geometry" />
        </mxCell>
        <mxCell id="G333paSs6uaZIUQpYv4E-70" style="edgeStyle=orthogonalEdgeStyle;rounded=0;orthogonalLoop=1;jettySize=auto;html=1;entryX=0;entryY=0.5;entryDx=0;entryDy=0;entryPerimeter=0;startArrow=classic;startFill=1;" edge="1" parent="1" source="G333paSs6uaZIUQpYv4E-61" target="G333paSs6uaZIUQpYv4E-62">
          <mxGeometry relative="1" as="geometry" />
        </mxCell>
      </root>
    </mxGraphModel>
  </diagram>
</mxfile>